<svg id="behance-logo" xmlns="http://www.w3.org/2000/svg" width="24" height="24" viewBox="0 0 24 24">
  <g id="Group_3842" data-name="Group 3842">
    <path id="Path_7128" data-name="Path 7128" d="M27.4,35.3c0-1.179-.8-1.179-.8-1.179h-3.3v2.53h3.1C26.925,36.648,27.4,36.477,27.4,35.3Z" transform="translate(-17.622 -25.781)"/>
    <path id="Path_7129" data-name="Path 7129" d="M26.6,50.846h-3.3v3.031h3.149c.474-.014,1.348-.162,1.348-1.473C27.79,50.83,26.6,50.846,26.6,50.846Z" transform="translate(-17.627 -38.434)"/>
    <path id="Path_7130" data-name="Path 7130" d="M63.435,44.011a2.029,2.029,0,0,0-2,1.748h3.725A1.688,1.688,0,0,0,63.435,44.011Z" transform="translate(-46.464 -33.239)"/>
    <path id="Path_7131" data-name="Path 7131" d="M12,0A12,12,0,1,0,24,12,12,12,0,0,0,12,0Zm2.616,7.083h4.492V8.423H14.616Zm-2.27,7.031c0,3.323-3.458,3.213-3.458,3.213H3.223V6.442H8.888a2.782,2.782,0,0,1,3.081,2.9,1.89,1.89,0,0,1-1.661,2.072C12.5,11.412,12.346,14.114,12.346,14.114Zm4.676,1.717c1.81,0,1.745-1.171,1.745-1.171h1.916c0,3.108-3.725,2.9-3.725,2.9a3.862,3.862,0,0,1-4.183-4.162s0-4.182,4.182-4.182c4.406,0,3.789,4.725,3.789,4.725H15.106A1.771,1.771,0,0,0,17.022,15.831Z"/>
  </g>
</svg>
