<svg xmlns="http://www.w3.org/2000/svg" width="84" height="39.564" viewBox="0 0 84 39.564"><defs><style>.a{fill:#c9462b;}.b{fill:#ea8572;}.c{fill:#97536e;}.d{fill:#702946;}.e{fill:none;stroke:#97536e;stroke-width:3px;}</style></defs><g transform="translate(0 1.564)"><g transform="translate(0 14.607)"><rect class="a" width="35.089" height="9.097"/><rect class="b" width="49.385" height="9.097" transform="translate(34.615)"/><rect class="c" width="7.798" height="9.097" transform="translate(54.246)"/><path class="d" d="M0,0H7.8V23.393L3.843,20.764,0,23.393Z" transform="translate(11.696)"/></g><g transform="translate(19.325 0)"><path class="e" d="M21439.715,5259.049s5.395-18.426,17.646-12.464c6.564,3.788,3.949,9.968.666,11.741a14.516,14.516,0,0,1-1.582.723Z" transform="translate(-21417.359 -5245.398)"/><path class="e" d="M21461.426,5259.049s-5.393-18.426-17.645-12.464c-6.566,3.788-3.951,9.968-.67,11.741a14.643,14.643,0,0,0,1.584.723Z" transform="translate(-21439.719 -5245.398)"/></g></g></svg>