<svg xmlns="http://www.w3.org/2000/svg" width="120" height="120" viewBox="0 0 120 120"><defs><style>.a{fill:#fafafa;}.b{fill:#f67b46;}.c{fill:#d1e3ee;}.d{fill:#e6632b;}.e{fill:#ffbf41;}.f{fill:#d5557e;}.g{fill:#dd95c1;}.h{fill:#7fcccb;}.i{fill:#2276bb;}.j{fill:#fff;}.k{fill:#f6f6e7;}.l{fill:#c9da53;}.m{fill:#ffdb43;}.n{fill:#2bb3ce;}</style></defs><g transform="translate(-889 -257)"><circle class="a" cx="60" cy="60" r="60" transform="translate(889 257)"/><g transform="translate(910.465 281.961)"><path class="b" d="M39.02,131.6c-9.049-9.048-18.972-13.8-22.164-10.606a3.191,3.191,0,0,0-.752,1.3l-.051-.051L13,134.733,9.969,147.188l-3.6,14.748-2.278,9.34,13.486-5.1,17.153-6.49L48.417,154.5l-.016-.016a3.185,3.185,0,0,0,1.226-.725C52.818,150.571,48.07,140.648,39.02,131.6Z" transform="translate(0 -102.487)"/><ellipse class="c" cx="23.172" cy="8.173" rx="23.172" ry="8.173" transform="translate(43.848 57.051) rotate(-135)"/><path class="d" d="M47.174,353.679a11.443,11.443,0,0,1-4.754-.943l-11.185,4.232-17.159,6.484-9.2,3.482-.782,3.207,13.486-5.1,17.153-6.49L47.291,353.8Z" transform="translate(0 -301.258)"/><g transform="translate(25.466 6.984)"><path class="e" d="M252.772,268.456a1.2,1.2,0,0,1-.41-.074,36.085,36.085,0,0,0-18.578-1.8l-4.17.695a1.168,1.168,0,0,1-.385-2.3l4.172-.7a38.447,38.447,0,0,1,19.781,1.921,1.168,1.168,0,0,1-.41,2.266Z" transform="translate(-216.937 -232.242)"/><path class="e" d="M245.3,166.028a1.168,1.168,0,0,1-.5-2.218l24.518-11.675a1.168,1.168,0,0,1,1,2.109h0L245.8,165.918A1.167,1.167,0,0,1,245.3,166.028Z" transform="translate(-230.481 -136.819)"/><path class="e" d="M151.713,74.729a1.151,1.151,0,0,1-.448-.09,1.167,1.167,0,0,1-.628-1.527h0l1.7-4.073A32.659,32.659,0,0,0,154.077,49.3a1.167,1.167,0,1,1,2.27-.548c0,.014.006.028.009.042a34.979,34.979,0,0,1-1.868,21.147l-1.7,4.073a1.168,1.168,0,0,1-1.076.718Z" transform="translate(-150.546 -47.855)"/></g><ellipse class="f" cx="2.599" cy="2.274" rx="2.599" ry="2.274" transform="translate(64.529 43.313)"/><circle class="g" cx="2.274" cy="2.274" r="2.274" transform="translate(36.585 10.821)"/><path class="h" d="M158.428,4.67a2.335,2.335,0,1,1,2.335-2.335A2.335,2.335,0,0,1,158.428,4.67Z" transform="translate(-129.817)"/><g transform="translate(56.631)"><path class="i" d="M389.26,43.5a1.168,1.168,0,0,1-1.168-1.168V41.168a1.168,1.168,0,0,1,2.335,0v1.168A1.167,1.167,0,0,1,389.26,43.5Z" transform="translate(-384.59 -34.162)"/><path class="i" d="M389.26,3.5a1.168,1.168,0,0,1-1.168-1.168V1.168a1.168,1.168,0,0,1,2.335,0V2.335A1.167,1.167,0,0,1,389.26,3.5Z" transform="translate(-384.59)"/><path class="i" d="M406.428,26.335H405.26a1.168,1.168,0,0,1,0-2.335h1.168a1.168,1.168,0,0,1,0,2.335Z" transform="translate(-398.255 -20.497)"/><path class="i" d="M366.428,26.335H365.26a1.168,1.168,0,0,1,0-2.335h1.168a1.168,1.168,0,1,1,0,2.335Z" transform="translate(-364.093 -20.497)"/></g><path class="j" d="M47.749,223.118c-.131-.5-.248-1-.356-1.518l-3.036,12.455.234,2.848a26.211,26.211,0,0,0,7.375,16.132L69.12,246.55c-.093-.029-.19-.05-.284-.082A34.23,34.23,0,0,1,47.749,223.118Z" transform="translate(-34.388 -189.26)"/><path class="k" d="M102.661,383.589c-.093-.029-.19-.05-.284-.082a34.137,34.137,0,0,1-3.3-1.451L83.629,387.9a26.141,26.141,0,0,0,1.879,2.177Z" transform="translate(-67.929 -326.299)"/><path class="l" d="M305.787,95.832v5.862h-5.862V95.832Z" transform="translate(-252.658 -81.846)"/><path class="e" d="M189.262,164.933a1.168,1.168,0,0,1-.781-2.035l11.675-10.508a1.168,1.168,0,0,1,1.562,1.735l-11.675,10.508a1.168,1.168,0,0,1-.781.3Z" transform="translate(-157.149 -129.907)"/><g transform="translate(4.093 1.168)"><path class="m" d="M421.26,187.5a1.168,1.168,0,0,1-1.168-1.168v-1.168a1.168,1.168,0,0,1,2.335,0v1.168A1.167,1.167,0,0,1,421.26,187.5Z" transform="translate(-359.382 -158.315)"/><path class="m" d="M444.8,177.869a1.159,1.159,0,0,1-.825-.342l-.825-.825a1.168,1.168,0,0,1,1.651-1.651l.825.825a1.168,1.168,0,0,1-.825,1.993Z" transform="translate(-378.795 -150.391)"/><path class="m" d="M454.428,154.335H453.26a1.168,1.168,0,0,1,0-2.335h1.168a1.168,1.168,0,0,1,0,2.335Z" transform="translate(-386.712 -130.985)"/><path class="m" d="M443.894,126.964a1.168,1.168,0,0,1-.825-1.993l.825-.825a1.168,1.168,0,0,1,1.651,1.651l-.825.825a1.167,1.167,0,0,1-.825.342Z" transform="translate(-378.713 -106.915)"/><path class="m" d="M421.26,115.5a1.168,1.168,0,0,1-1.168-1.168v-1.168a1.168,1.168,0,0,1,2.335,0v1.168A1.167,1.167,0,0,1,421.26,115.5Z" transform="translate(-359.382 -96.822)"/><path class="m" d="M393.882,126.965a1.167,1.167,0,0,1-.825-.342l-.825-.825a1.168,1.168,0,0,1,1.651-1.651l.826.825a1.168,1.168,0,0,1-.826,1.993Z" transform="translate(-335.306 -106.916)"/><path class="m" d="M9.931,8l1.8,3.655,4.034.586-2.919,2.845.689,4.017-3.608-1.9L6.323,19.1l.689-4.017L4.093,12.242l4.034-.586Z" transform="translate(-4.093 -8)"/></g><path class="n" d="M373.4,357.063a8.1,8.1,0,0,0-3.58-4.718l-.481-.722a17.618,17.618,0,0,0-11.723-7.581,1.167,1.167,0,0,0-.385,2.3,15.276,15.276,0,0,1,8.909,4.967,6.888,6.888,0,0,0-4.67,3.207,4.67,4.67,0,0,0,8.155,4.553,6.772,6.772,0,0,0,.758-3,5.7,5.7,0,0,1,.256,6.063,1.168,1.168,0,0,0,2.008,1.191c.01-.018.021-.036.03-.054a8.121,8.121,0,0,0,.723-6.212Zm-5.811.87a2.335,2.335,0,1,1-4.089-2.257l.01-.019a4.375,4.375,0,0,1,3.162-2.057,1.187,1.187,0,0,1,.584.135C368.24,354.285,368.293,356.669,367.587,357.933Z" transform="translate(-300.79 -293.823)"/></g></g></svg>