<svg id="Group_3841" data-name="Group 3841" xmlns="http://www.w3.org/2000/svg" width="24" height="24" viewBox="0 0 24 24">
  <circle id="Ellipse_593" data-name="Ellipse 593" cx="12" cy="12" r="12"/>
  <g id="dribble-big-logo" transform="translate(4.751 4.82)">
    <path id="Path_7127" data-name="Path 7127" d="M7.3,14.446A7.262,7.262,0,0,1,0,7.236a7.3,7.3,0,0,1,14.594,0A7.262,7.262,0,0,1,7.3,14.446Zm5.832-6.274a8.785,8.785,0,0,0-3.679-.25A24.928,24.928,0,0,1,10.6,12.083,5.837,5.837,0,0,0,13.128,8.172ZM9.6,12.617A24.083,24.083,0,0,0,8.344,8.192L8.3,8.205A8.066,8.066,0,0,0,3.672,11.85a5.96,5.96,0,0,0,5.933.768Zm-6.7-1.47A9.336,9.336,0,0,1,7.71,7.3c.077-.025.155-.047.233-.069-.148-.332-.309-.663-.479-.991a22.012,22.012,0,0,1-6.07.831c0,.059,0,.119,0,.178A5.772,5.772,0,0,0,2.909,11.147Zm-1.394-5.1a22.33,22.33,0,0,0,5.46-.711,36.9,36.9,0,0,0-2.19-3.375A5.868,5.868,0,0,0,1.515,6.051Zm4.4-4.477a31.037,31.037,0,0,1,2.2,3.416,6.667,6.667,0,0,0,3.1-2.108,5.959,5.959,0,0,0-5.3-1.308Zm5.956,1.982a7.849,7.849,0,0,1-3.3,2.3c.137.279.269.562.392.846q.065.152.127.3a13.947,13.947,0,0,1,4.113.188A5.767,5.767,0,0,0,11.869,3.556Z" transform="translate(0 -0.028)" fill="#fff" fill-rule="evenodd"/>
  </g>
</svg>
