<svg id="Group_3844" data-name="Group 3844" xmlns="http://www.w3.org/2000/svg" width="24" height="24" viewBox="0 0 24 24">
  <circle id="Ellipse_594" data-name="Ellipse 594" cx="12" cy="12" r="12"/>
  <g id="github" transform="translate(6.02 6.543)">
    <g id="Group_3843" data-name="Group 3843">
      <path id="Path_7132" data-name="Path 7132" d="M5.777,5.329A5.8,5.8,0,0,0,3.952,16.634c.289.053.394-.126.394-.28,0-.138-.005-.5-.008-.987-1.607.35-1.946-.778-1.946-.778a1.532,1.532,0,0,0-.641-.849c-.525-.36.039-.352.039-.352a1.214,1.214,0,0,1,.885.6,1.228,1.228,0,0,0,1.682.482,1.238,1.238,0,0,1,.367-.776,2.567,2.567,0,0,1-2.632-2.867,2.249,2.249,0,0,1,.6-1.557,2.09,2.09,0,0,1,.056-1.535s.485-.156,1.589.594a5.454,5.454,0,0,1,2.893,0c1.1-.75,1.588-.594,1.588-.594A2.093,2.093,0,0,1,8.871,9.27a2.244,2.244,0,0,1,.594,1.557A2.56,2.56,0,0,1,6.827,13.69a1.388,1.388,0,0,1,.392,1.074c0,.776-.007,1.4-.007,1.591,0,.155.1.336.4.279a5.805,5.805,0,0,0-1.832-11.3Z" transform="translate(0 -5.329)" fill="#fff"/>
    </g>
  </g>
</svg>
