<svg xmlns="http://www.w3.org/2000/svg" width="17.568" height="17.57" viewBox="0 0 17.568 17.57">
  <g id="link" transform="translate(-0.039 0)">
    <g id="Group_3838" data-name="Group 3838" transform="translate(0.039 5.648)">
      <g id="Group_3837" data-name="Group 3837">
        <path id="Path_7123" data-name="Path 7123" d="M10.758,165.814a3.987,3.987,0,0,0-.688-.553,4.1,4.1,0,0,0-5.109.553l-3.724,3.727a4.1,4.1,0,0,0,5.794,5.8l3.074-3.074a.293.293,0,0,0-.208-.5H9.78a4.927,4.927,0,0,1-1.874-.363.293.293,0,0,0-.319.064l-2.211,2.213A1.758,1.758,0,0,1,2.891,171.2L6.63,167.46a1.757,1.757,0,0,1,2.483,0,1.2,1.2,0,0,0,1.645,0,1.16,1.16,0,0,0,0-1.645Z" transform="translate(-0.039 -164.614)" fill="#707070"/>
      </g>
    </g>
    <g id="Group_3840" data-name="Group 3840" transform="translate(6.54 0)">
      <g id="Group_3839" data-name="Group 3839" transform="translate(0 0)">
        <path id="Path_7124" data-name="Path 7124" d="M199.368,1.2a4.1,4.1,0,0,0-5.8,0L190.5,4.269a.294.294,0,0,0,.214.5h.108a4.919,4.919,0,0,1,1.871.366.293.293,0,0,0,.319-.064l2.2-2.2A1.758,1.758,0,0,1,197.7,5.355L194.956,8.1l-.023.026-.96.954a1.757,1.757,0,0,1-2.483,0,1.2,1.2,0,0,0-1.645,0,1.167,1.167,0,0,0,0,1.651,4.064,4.064,0,0,0,1.171.82c.061.029.123.053.184.079s.126.047.187.07.126.044.187.061l.173.047c.117.029.234.053.354.073a4.076,4.076,0,0,0,.436.041h.223l.176-.02c.064,0,.132-.018.208-.018h.1l.2-.029.094-.018.17-.035h.032a4.1,4.1,0,0,0,1.9-1.077L199.368,7A4.1,4.1,0,0,0,199.368,1.2Z" transform="translate(-189.502 0)" fill="#707070"/>
      </g>
    </g>
  </g>
</svg>
